PathFileType	4	(X/Y/Z)	OpenSim_Sub07_EMGBaseline_Magnet.trc
DataRate	CameraRate	NumFrames	NumMarkers	Units	OrigDataRate	OrigDataStartFrame	OrigNumFrames
100	100	16	8	m	100	2561	6828
Frame#	Time	torso_imu_offset_imu	pelvis_imu_offset_imu	tibia_r_imu_offset_imu	femur_r_imu_offset_imu	tibia_l_imu_offset_imu	femur_l_imu_offset_imu	toes_r_imu_offset_imu	toes_l_imu_offset_imu
				X1	Y1	Z1	X2	Y2	Z2	X3	Y3	Z3	X4	Y4	Z4	X5	Y5	Z5	X6	Y6	Z6	X7	Y7	Z7	X8		Y8	Z8	

2561	25.60000000	0.92163100	0.19335900	0.03955100	-0.71093800	0.18872100	-0.59814500	-0.33789100	-0.72680700	0.10351600	-0.87719700	-0.06152300	-0.06494100	-0.59350600	0.54199200	0.18090800	-0.65087900	0.29052700	0.44067400	-0.69238300	-0.39038100	-0.05835000	-0.71069300	-0.23339800	-0.36303700
2562	25.61000000	0.92382800	0.19335900	0.04174800	-0.70898400	0.19091800	-0.60058600	-0.36987300	-0.71215800	0.11181600	-0.87524400	-0.05957000	-0.06494100	-0.59570300	0.54418900	0.17627000	-0.65332000	0.30127000	0.44506800	-0.68627900	-0.38598600	-0.10009800	-0.70849600	-0.23559600	-0.36303700
2563	25.62000000	0.92187500	0.18920900	0.03955100	-0.71093800	0.19091800	-0.59814500	-0.40795900	-0.69335900	0.10888700	-0.87524400	-0.06152300	-0.06494100	-0.59375000	0.55078100	0.17822300	-0.65112300	0.30127000	0.44287100	-0.68847700	-0.37793000	-0.12939500	-0.71093800	-0.23120100	-0.36328100
2564	25.63000000	0.91967800	0.18920900	0.03955100	-0.70239300	0.19091800	-0.59814500	-0.43408200	-0.66845700	0.10571300	-0.87524400	-0.05737300	-0.06738300	-0.59375000	0.55297900	0.17578100	-0.64477500	0.30590800	0.44726600	-0.68432600	-0.37548800	-0.15869100	-0.70434600	-0.22680700	-0.36328100
2565	25.64000000	0.91528300	0.18920900	0.04834000	-0.70898400	0.19311500	-0.60058600	-0.46606400	-0.64965800	0.10742200	-0.87500000	-0.06787100	-0.06469700	-0.58056600	0.55737300	0.17993200	-0.63818400	0.30810500	0.44506800	-0.67602500	-0.36718800	-0.19409200	-0.70654300	-0.22900400	-0.36547900
2566	25.65000000	0.92407200	0.18701200	0.04858400	-0.70459000	0.19091800	-0.60058600	-0.49585000	-0.62890600	0.09082000	-0.87304700	-0.06372100	-0.07397500	-0.58056600	0.56396500	0.17504900	-0.63842800	0.31469700	0.45629900	-0.67016600	-0.35058600	-0.22753900	-0.70410200	-0.23339800	-0.36987300
2567	25.66000000	0.92163100	0.19140600	0.05273400	-0.70239300	0.19091800	-0.60278300	-0.52587900	-0.61010700	0.07446300	-0.87695300	-0.06787100	-0.06005900	-0.57617200	0.56396500	0.16821300	-0.64282200	0.31665000	0.45629900	-0.66821300	-0.34204100	-0.26733400	-0.70654300	-0.22900400	-0.37207000
2568	25.67000000	0.91967800	0.18701200	0.05078100	-0.69824200	0.19091800	-0.59814500	-0.55395500	-0.58496100	0.05810500	-0.87036100	-0.07812500	-0.06884800	-0.57421900	0.57055700	0.17456100	-0.63647500	0.32104500	0.44482400	-0.65380900	-0.33764600	-0.29223600	-0.71069300	-0.23339800	-0.37451200
2569	25.68000000	0.92382800	0.19335900	0.05053700	-0.70459000	0.19091800	-0.60278300	-0.57104500	-0.56835900	0.05078100	-0.86377000	-0.09252900	-0.06591800	-0.56958000	0.56835900	0.17480500	-0.63183600	0.31689500	0.45849600	-0.63964800	-0.32299800	-0.32373000	-0.70629900	-0.23120100	-0.36767600
2570	25.69000000	0.92187500	0.18920900	0.04418900	-0.70434600	0.18676800	-0.60498000	-0.59497100	-0.54126000	0.02294900	-0.86547900	-0.10498000	-0.07470700	-0.56762700	0.57934600	0.17627000	-0.63427700	0.32324200	0.45849600	-0.63134800	-0.31665000	-0.35083000	-0.70410200	-0.22900400	-0.38110400
2571	25.70000000	0.92187500	0.18505900	0.05078100	-0.69824200	0.19531200	-0.60302700	-0.61035200	-0.52246100	0.01342800	-0.86108400	-0.10717800	-0.07690400	-0.55883800	0.58593800	0.17602500	-0.62793000	0.32763700	0.46044900	-0.61889600	-0.31225600	-0.38623000	-0.71533200	-0.23339800	-0.37451200
2572	25.71000000	0.92382800	0.18920900	0.05517600	-0.69824200	0.19091800	-0.60278300	-0.63183600	-0.50561500	0.00146500	-0.86059600	-0.12353500	-0.08544900	-0.55883800	0.58593800	0.17358400	-0.62133800	0.32788100	0.46044900	-0.60449200	-0.30981400	-0.40283200	-0.71093800	-0.22900400	-0.38330100
2573	25.72000000	0.91748000	0.18701200	0.05078100	-0.70654300	0.18872100	-0.60278300	-0.65112300	-0.48486300	-0.00585900	-0.85400400	-0.13598600	-0.08715800	-0.54785200	0.58813500	0.17578100	-0.61669900	0.32568400	0.46044900	-0.59204100	-0.30151400	-0.42797900	-0.71313500	-0.22900400	-0.38110400
2574	25.73000000	0.92187500	0.18701200	0.05517600	-0.70239300	0.19091800	-0.60278300	-0.66259800	-0.45971700	-0.02246100	-0.85351600	-0.15039100	-0.09814500	-0.55249000	0.59692400	0.17309600	-0.62377900	0.33422900	0.46508800	-0.57959000	-0.30102500	-0.45483400	-0.71557600	-0.22460900	-0.38574200
2575	25.74000000	0.92187500	0.18701200	0.05517600	-0.70019500	0.19091800	-0.60522500	-0.67358400	-0.44506800	-0.02514600	-0.85131800	-0.15258800	-0.10034200	-0.53930700	0.60351600	0.17260700	-0.62158200	0.33642600	0.47168000	-0.56958000	-0.28247100	-0.47387700	-0.72021500	-0.22241200	-0.38354500
2576	25.75000000	0.92407200	0.18286100	0.05322300	-0.70239300	0.19091800	-0.60278300	-0.68457000	-0.42846700	-0.03906200	-0.85107400	-0.16503900	-0.09985400	-0.53955100	0.61010700	0.17236300	-0.61718800	0.33667000	0.46728500	-0.56127900	-0.27612300	-0.49072300	-0.71801800	-0.22021500	-0.38110400
